<svg width="24" height="24" viewBox="0 0 24 24" fill="none" xmlns="http://www.w3.org/2000/svg">
<path fill-rule="evenodd" clip-rule="evenodd" d="M2.59473 3C2.59473 2.0335 3.37823 1.25 4.34473 1.25H15.3447C16.3112 1.25 17.0947 2.0335 17.0947 3V6H15.5947V3C15.5947 2.86193 15.4828 2.75 15.3447 2.75H4.34473C4.20666 2.75 4.09473 2.86193 4.09473 3V21C4.09473 21.1381 4.20666 21.25 4.34473 21.25H15.3447C15.4828 21.25 15.5947 21.1381 15.5947 21V18H17.0947V21C17.0947 21.9665 16.3112 22.75 15.3447 22.75H4.34473C3.37823 22.75 2.59473 21.9665 2.59473 21V3ZM18.5341 12.75L15.8144 15.4697L16.8751 16.5303L20.8751 12.5303L21.4054 12L20.8751 11.4697L16.8751 7.46967L15.8144 8.53033L18.5341 11.25H7.33691V12.75H18.5341Z" fill="red"/>
</svg>
