<svg width="24" height="24" viewBox="0 0 24 24" fill="none" xmlns="http://www.w3.org/2000/svg">
<mask id="path-1-inside-1" fill="white">
<rect x="3" y="1" width="19" height="23" rx="1"/>
</mask>
<rect x="3" y="1" width="19" height="23" rx="1" stroke="white" stroke-width="3" mask="url(#path-1-inside-1)"/>
<path d="M13.6367 17H11.6562V10.6602H13.6367V17ZM11.5391 9.02539C11.5391 8.74414 11.6406 8.51367 11.8438 8.33398C12.0469 8.1543 12.3105 8.06445 12.6348 8.06445C12.959 8.06445 13.2227 8.1543 13.4258 8.33398C13.6289 8.51367 13.7305 8.74414 13.7305 9.02539C13.7305 9.30664 13.6289 9.53711 13.4258 9.7168C13.2227 9.89648 12.959 9.98633 12.6348 9.98633C12.3105 9.98633 12.0469 9.89648 11.8438 9.7168C11.6406 9.53711 11.5391 9.30664 11.5391 9.02539Z" fill="white"/>
</svg>
