<svg width="24" height="24" viewBox="0 0 24 24" fill="none" xmlns="http://www.w3.org/2000/svg">
<mask id="path-1-inside-1" fill="white">
<path fill-rule="evenodd" clip-rule="evenodd" d="M14.9444 4.44444V5.73968H9.05556V4.44444C9.05556 2.81827 10.3738 1.5 12 1.5C13.6262 1.5 14.9444 2.81827 14.9444 4.44444ZM7.55556 4.44444C7.55556 1.98984 9.5454 0 12 0C14.4546 0 16.4444 1.98985 16.4444 4.44444V5.73968V5.90069H19C19.5523 5.90069 20 6.3484 20 6.90069V22.9999C20 23.5522 19.5523 23.9999 19 23.9999H5C4.44772 23.9999 4 23.5522 4 22.9999V6.90069C4 6.34841 4.44772 5.90069 5 5.90069H7.55556V5.73968V4.44444ZM5.5 22.4999V7.40069H18.5V22.4999H5.5Z"/>
</mask>
<path fill-rule="evenodd" clip-rule="evenodd" d="M14.9444 4.44444V5.73968H9.05556V4.44444C9.05556 2.81827 10.3738 1.5 12 1.5C13.6262 1.5 14.9444 2.81827 14.9444 4.44444ZM7.55556 4.44444C7.55556 1.98984 9.5454 0 12 0C14.4546 0 16.4444 1.98985 16.4444 4.44444V5.73968V5.90069H19C19.5523 5.90069 20 6.3484 20 6.90069V22.9999C20 23.5522 19.5523 23.9999 19 23.9999H5C4.44772 23.9999 4 23.5522 4 22.9999V6.90069C4 6.34841 4.44772 5.90069 5 5.90069H7.55556V5.73968V4.44444ZM5.5 22.4999V7.40069H18.5V22.4999H5.5Z" fill="white"/>
<path d="M14.9444 5.73968V6.73968H15.9444V5.73968H14.9444ZM9.05556 5.73968H8.05556V6.73968H9.05556V5.73968ZM16.4444 5.90069H15.4444V6.90069H16.4444V5.90069ZM7.55556 5.90069V6.90069H8.55556V5.90069H7.55556ZM5.5 7.40069V6.40069H4.5V7.40069H5.5ZM5.5 22.4999H4.5V23.4999H5.5V22.4999ZM18.5 7.40069H19.5V6.40069H18.5V7.40069ZM18.5 22.4999V23.4999H19.5V22.4999H18.5ZM15.9444 5.73968V4.44444H13.9444V5.73968H15.9444ZM9.05556 6.73968H14.9444V4.73968H9.05556V6.73968ZM8.05556 4.44444V5.73968H10.0556V4.44444H8.05556ZM12 0.5C9.82154 0.5 8.05556 2.26599 8.05556 4.44444H10.0556C10.0556 3.37056 10.9261 2.5 12 2.5V0.5ZM15.9444 4.44444C15.9444 2.26599 14.1785 0.5 12 0.5V2.5C13.0739 2.5 13.9444 3.37056 13.9444 4.44444H15.9444ZM12 -1C8.99312 -1 6.55556 1.43756 6.55556 4.44444H8.55556C8.55556 2.54213 10.0977 1 12 1V-1ZM17.4444 4.44444C17.4444 1.43756 15.0069 -1 12 -1V1C13.9023 1 15.4444 2.54213 15.4444 4.44444H17.4444ZM17.4444 5.73968V4.44444H15.4444V5.73968H17.4444ZM17.4444 5.90069V5.73968H15.4444V5.90069H17.4444ZM19 4.90069H16.4444V6.90069H19V4.90069ZM21 6.90069C21 5.79612 20.1046 4.90069 19 4.90069V6.90069H21ZM21 22.9999V6.90069H19V22.9999H21ZM19 24.9999C20.1046 24.9999 21 24.1045 21 22.9999H19V22.9999V24.9999ZM5 24.9999H19V22.9999H5V24.9999ZM3 22.9999C3 24.1045 3.89543 24.9999 5 24.9999V22.9999H3ZM3 6.90069V22.9999H5V6.90069H3ZM5 4.90069C3.89543 4.90069 3 5.79612 3 6.90069H5V6.90069V4.90069ZM7.55556 4.90069H5V6.90069H7.55556V4.90069ZM6.55556 5.73968V5.90069H8.55556V5.73968H6.55556ZM6.55556 4.44444V5.73968H8.55556V4.44444H6.55556ZM4.5 7.40069V22.4999H6.5V7.40069H4.5ZM18.5 6.40069H5.5V8.40069H18.5V6.40069ZM19.5 22.4999V7.40069H17.5V22.4999H19.5ZM5.5 23.4999H18.5V21.4999H5.5V23.4999Z" fill="white" mask="url(#path-1-inside-1)"/>
<mask id="path-3-inside-2" fill="white">
<path fill-rule="evenodd" clip-rule="evenodd" d="M15.5543 14.2398C15.5543 14.1837 15.5522 14.1282 15.5481 14.0731C15.4629 12.9237 14.5033 12.0176 13.332 12.0176C12.1608 12.0176 11.2012 12.9237 11.116 14.0731C11.1119 14.1282 11.1098 14.1837 11.1098 14.2398V14.6842H10.332C9.77975 14.6842 9.33203 15.132 9.33203 15.6842V22.5731C9.33203 23.1254 9.77975 23.5731 10.332 23.5731H16.332C16.8843 23.5731 17.332 23.1254 17.332 22.5731V15.6842C17.332 15.132 16.8843 14.6842 16.332 14.6842H15.5543V14.2398ZM13.332 13.5176C12.9905 13.5176 12.7044 13.7546 12.6291 14.0731H14.0349C13.9597 13.7546 13.6735 13.5176 13.332 13.5176ZM10.832 22.0731V16.1842H15.832V22.0731H10.832Z"/>
</mask>
<path fill-rule="evenodd" clip-rule="evenodd" d="M15.5543 14.2398C15.5543 14.1837 15.5522 14.1282 15.5481 14.0731C15.4629 12.9237 14.5033 12.0176 13.332 12.0176C12.1608 12.0176 11.2012 12.9237 11.116 14.0731C11.1119 14.1282 11.1098 14.1837 11.1098 14.2398V14.6842H10.332C9.77975 14.6842 9.33203 15.132 9.33203 15.6842V22.5731C9.33203 23.1254 9.77975 23.5731 10.332 23.5731H16.332C16.8843 23.5731 17.332 23.1254 17.332 22.5731V15.6842C17.332 15.132 16.8843 14.6842 16.332 14.6842H15.5543V14.2398ZM13.332 13.5176C12.9905 13.5176 12.7044 13.7546 12.6291 14.0731H14.0349C13.9597 13.7546 13.6735 13.5176 13.332 13.5176ZM10.832 22.0731V16.1842H15.832V22.0731H10.832Z" fill="white"/>
<path d="M15.5481 14.0731L14.5508 14.1471V14.1471L15.5481 14.0731ZM11.116 14.0731L12.1132 14.1471V14.1471L11.116 14.0731ZM11.1098 14.6842V15.6842H12.1098V14.6842H11.1098ZM15.5543 14.6842H14.5543V15.6842H15.5543V14.6842ZM12.6291 14.0731L11.6559 13.8432L11.3654 15.0731H12.6291V14.0731ZM14.0349 14.0731V15.0731H15.2987L15.0081 13.8432L14.0349 14.0731ZM10.832 16.1842V15.1842H9.83203V16.1842H10.832ZM10.832 22.0731H9.83203V23.0731H10.832V22.0731ZM15.832 16.1842H16.832V15.1842H15.832V16.1842ZM15.832 22.0731V23.0731H16.832V22.0731H15.832ZM14.5508 14.1471C14.5531 14.1775 14.5543 14.2084 14.5543 14.2398H16.5543C16.5543 14.159 16.5513 14.0788 16.5454 13.9992L14.5508 14.1471ZM13.332 13.0176C13.9758 13.0176 14.504 13.5159 14.5508 14.1471L16.5454 13.9992C16.4217 12.3315 15.0308 11.0176 13.332 11.0176V13.0176ZM12.1132 14.1471C12.16 13.5159 12.6883 13.0176 13.332 13.0176V11.0176C11.6333 11.0176 10.2424 12.3315 10.1187 13.9992L12.1132 14.1471ZM12.1098 14.2398C12.1098 14.2084 12.111 14.1775 12.1132 14.1471L10.1187 13.9992C10.1128 14.0788 10.1098 14.159 10.1098 14.2398H12.1098ZM12.1098 14.6842V14.2398H10.1098V14.6842H12.1098ZM11.1098 13.6842H10.332V15.6842H11.1098V13.6842ZM10.332 13.6842C9.22746 13.6842 8.33203 14.5797 8.33203 15.6842H10.332V15.6842V13.6842ZM8.33203 15.6842V22.5731H10.332V15.6842H8.33203ZM8.33203 22.5731C8.33203 23.6777 9.22746 24.5731 10.332 24.5731V22.5731H8.33203ZM10.332 24.5731H16.332V22.5731H10.332V24.5731ZM16.332 24.5731C17.4366 24.5731 18.332 23.6777 18.332 22.5731H16.332V22.5731V24.5731ZM18.332 22.5731V15.6842H16.332V22.5731H18.332ZM18.332 15.6842C18.332 14.5797 17.4366 13.6842 16.332 13.6842V15.6842H18.332ZM16.332 13.6842H15.5543V15.6842H16.332V13.6842ZM14.5543 14.2398V14.6842H16.5543V14.2398H14.5543ZM13.6024 14.303C13.5734 14.4256 13.4647 14.5176 13.332 14.5176V12.5176C12.5164 12.5176 11.8353 13.0836 11.6559 13.8432L13.6024 14.303ZM14.0349 13.0731H12.6291V15.0731H14.0349V13.0731ZM13.332 14.5176C13.1994 14.5176 13.0907 14.4256 13.0617 14.303L15.0081 13.8432C14.8287 13.0836 14.1477 12.5176 13.332 12.5176V14.5176ZM9.83203 16.1842V22.0731H11.832V16.1842H9.83203ZM15.832 15.1842H10.832V17.1842H15.832V15.1842ZM16.832 22.0731V16.1842H14.832V22.0731H16.832ZM10.832 23.0731H15.832V21.0731H10.832V23.0731Z" fill="white" mask="url(#path-3-inside-2)"/>
</svg>
